<svg width="45" height="45" viewBox="0 0 45 45" fill="none" xmlns="http://www.w3.org/2000/svg">
<path d="M22.5 30C26.6362 30 30 26.6363 30 22.5C30 18.3637 26.6362 15 22.5 15C18.3637 15 15 18.3637 15 22.5C15 26.6363 18.3637 30 22.5 30ZM22.5 18.75C24.5325 18.75 26.25 20.4675 26.25 22.5C26.25 24.5325 24.5325 26.25 22.5 26.25C20.4675 26.25 18.75 24.5325 18.75 22.5C18.75 20.4675 20.4675 18.75 22.5 18.75Z" fill="white"/>
<path d="M5.33433 30.255L7.20933 33.4987C8.20496 35.2181 10.6012 35.8631 12.3281 34.8675L13.32 34.2938C14.4047 35.1471 15.6007 35.8485 16.875 36.3788V37.5C16.875 39.5681 18.5568 41.25 20.625 41.25H24.375C26.4431 41.25 28.125 39.5681 28.125 37.5V36.3788C29.3988 35.8484 30.5947 35.1477 31.68 34.2956L32.6718 34.8694C34.4025 35.8631 36.7931 35.2219 37.7925 33.4987L39.6656 30.2569C40.1625 29.3957 40.2972 28.3725 40.0403 27.412C39.7833 26.4515 39.1555 25.6323 38.295 25.1344L37.3481 24.5869C37.5494 23.2042 37.5494 21.7996 37.3481 20.4169L38.295 19.8694C39.1551 19.3711 39.7825 18.5519 40.0395 17.5915C40.2965 16.6312 40.162 15.6082 39.6656 14.7469L37.7925 11.505C36.7968 9.78 34.4025 9.13312 32.6718 10.1325L31.68 10.7063C30.5952 9.85295 29.3992 9.15149 28.125 8.62125V7.5C28.125 5.43187 26.4431 3.75 24.375 3.75H20.625C18.5568 3.75 16.875 5.43187 16.875 7.5V8.62125C15.6012 9.15158 14.4052 9.85235 13.32 10.7044L12.3281 10.1306C10.5956 9.135 8.20308 9.78 7.20746 11.5031L5.33433 14.745C4.83743 15.6062 4.70267 16.6294 4.95966 17.5899C5.21665 18.5503 5.84438 19.3695 6.70496 19.8675L7.65183 20.415C7.44977 21.797 7.44977 23.2011 7.65183 24.5831L6.70496 25.1306C5.84463 25.6293 5.2172 26.4488 4.96026 27.4095C4.70332 28.3701 4.83784 29.3934 5.33433 30.255ZM11.5706 25.0838C11.3589 24.2388 11.2512 23.3711 11.25 22.5C11.25 21.6337 11.3587 20.7637 11.5687 19.9162C11.6676 19.5212 11.6351 19.1048 11.4761 18.7299C11.317 18.355 11.0402 18.0422 10.6875 17.8387L8.58183 16.62L10.4531 13.3781L12.6 14.6194C12.9501 14.822 13.3564 14.9055 13.7581 14.8575C14.1597 14.8095 14.535 14.6325 14.8275 14.3531C16.0959 13.1467 17.6256 12.249 19.2975 11.73C19.6815 11.6127 20.0178 11.3753 20.2567 11.0526C20.4957 10.7299 20.6248 10.339 20.625 9.9375V7.5H24.375V9.9375C24.3751 10.339 24.5042 10.7299 24.7432 11.0526C24.9822 11.3753 25.3184 11.6127 25.7025 11.73C27.374 12.2498 28.9035 13.1473 30.1725 14.3531C30.4653 14.632 30.8405 14.8086 31.2419 14.8566C31.6434 14.9046 32.0497 14.8214 32.4 14.6194L34.545 13.38L36.42 16.6219L34.3125 17.8387C33.9599 18.0424 33.6833 18.3553 33.5243 18.7301C33.3653 19.1049 33.3326 19.5212 33.4312 19.9162C33.6412 20.7637 33.75 21.6337 33.75 22.5C33.75 23.3644 33.6412 24.2344 33.4293 25.0838C33.3309 25.479 33.3639 25.8955 33.5232 26.2703C33.6826 26.6451 33.9596 26.9579 34.3125 27.1613L36.4181 28.3781L34.5468 31.62L32.4 30.3806C32.0499 30.1777 31.6435 30.094 31.2418 30.142C30.8401 30.19 30.4648 30.3672 30.1725 30.6469C28.904 31.8533 27.3743 32.751 25.7025 33.27C25.3184 33.3872 24.9822 33.6247 24.7432 33.9474C24.5042 34.2701 24.3751 34.661 24.375 35.0625L24.3787 37.5H20.625V35.0625C20.6248 34.661 20.4957 34.2701 20.2567 33.9474C20.0178 33.6247 19.6815 33.3872 19.2975 33.27C17.6259 32.7502 16.0964 31.8527 14.8275 30.6469C14.5355 30.3664 14.1601 30.1888 13.758 30.1411C13.356 30.0934 12.9494 30.1782 12.6 30.3825L10.455 31.6237L8.57996 28.3819L10.6875 27.1613C11.0403 26.9579 11.3174 26.6451 11.4767 26.2703C11.636 25.8955 11.669 25.479 11.5706 25.0838Z" fill="white"/>
</svg>
