<svg width="45" height="45" viewBox="0 0 45 45" fill="none" xmlns="http://www.w3.org/2000/svg">
<path d="M13.125 31.8994L21.3994 31.8713L39.4594 13.9838C40.1681 13.275 40.5581 12.3338 40.5581 11.3325C40.5581 10.3313 40.1681 9.39 39.4594 8.68125L36.4856 5.7075C35.0681 4.29 32.595 4.2975 31.1887 5.70188L13.125 23.5931V31.8994ZM33.8344 8.35875L36.8137 11.3269L33.8194 14.2931L30.8456 11.3213L33.8344 8.35875ZM16.875 25.1569L28.1812 13.9575L31.155 16.9313L19.8506 28.1269L16.875 28.1362V25.1569Z" fill="white"/>
<path d="M9.375 39.375H35.625C37.6931 39.375 39.375 37.6931 39.375 35.625V19.3725L35.625 23.1225V35.625H15.2962C15.2475 35.625 15.1969 35.6437 15.1481 35.6437C15.0863 35.6437 15.0244 35.6268 14.9606 35.625H9.375V9.37495H22.2131L25.9631 5.62495H9.375C7.30687 5.62495 5.625 7.30683 5.625 9.37495V35.625C5.625 37.6931 7.30687 39.375 9.375 39.375Z" fill="white"/>
</svg>
