<svg width="45" height="45" viewBox="0 0 45 45" fill="none" xmlns="http://www.w3.org/2000/svg">
<path d="M23.8312 4.29388C23.6569 4.11814 23.4496 3.97865 23.2211 3.88346C22.9926 3.78827 22.7475 3.73926 22.5 3.73926C22.2525 3.73926 22.0074 3.78827 21.7789 3.88346C21.5504 3.97865 21.3431 4.11814 21.1687 4.29388L4.29375 21.1689C4.11801 21.3432 3.97852 21.5506 3.88333 21.779C3.78814 22.0075 3.73913 22.2526 3.73913 22.5001C3.73913 22.7477 3.78814 22.9927 3.88333 23.2212C3.97852 23.4497 4.11801 23.6571 4.29375 23.8314C4.46895 24.0052 4.67673 24.1426 4.90518 24.236C5.13362 24.3293 5.37824 24.3766 5.625 24.3751H7.5V37.5001C7.5 38.4947 7.89509 39.4485 8.59835 40.1518C9.30161 40.855 10.2554 41.2501 11.25 41.2501H33.75C34.7446 41.2501 35.6984 40.855 36.4016 40.1518C37.1049 39.4485 37.5 38.4947 37.5 37.5001V24.3751H39.375C39.8723 24.3751 40.3492 24.1776 40.7008 23.826C41.0525 23.4743 41.25 22.9974 41.25 22.5001C41.2514 22.2534 41.2041 22.0088 41.1108 21.7803C41.0175 21.5519 40.88 21.3441 40.7062 21.1689L23.8312 4.29388ZM11.25 37.5001V19.5189L22.5 8.26888L33.75 19.5189V37.5001H11.25Z" fill="white"/>
</svg>
