<svg width="46" height="45" viewBox="0 0 46 45" fill="none" xmlns="http://www.w3.org/2000/svg">
<path d="M41.9367 4.03125L39.6367 4.78125C35.6949 6.12102 31.4856 6.53216 27.3508 5.98125C23.006 5.32165 18.5589 5.90778 14.5475 7.66875C12.4209 8.55459 10.5546 9.94671 9.11849 11.7184C7.68237 13.4901 6.72206 15.585 6.325 17.8125C5.92109 19.9546 5.96241 22.1543 6.44648 24.2805C6.93055 26.4066 7.84746 28.4156 9.1425 30.1875C9.0275 30.5813 8.9125 30.975 8.81666 31.3687C8.03819 34.6069 7.6522 37.9235 7.66666 41.25H11.5C11.6802 38.5272 12.0581 35.8204 12.6308 33.15C15.2901 34.5548 18.2723 35.2712 21.2942 35.2313C24.1126 35.2294 26.902 34.6747 29.4975 33.6C44.0833 27.5063 42.1667 7.2375 42.1667 6.39375L41.9367 4.03125ZM28.0025 30.15C23 32.2313 17.02 31.875 13.6658 29.3062C14.2327 27.4519 15.0106 25.6657 15.985 23.9812C16.7425 22.7689 17.6361 21.6432 18.6492 20.625C19.6844 19.596 20.8503 18.7012 22.1183 17.9625C24.7386 16.4298 27.6445 15.4227 30.6667 15V13.125C27.1894 13.0072 23.7335 13.7014 20.585 15.15C17.3658 16.6867 14.6357 19.0527 12.6883 21.9937C11.9661 23.117 11.3256 24.2887 10.7717 25.5C9.88333 23.2769 9.63152 20.8589 10.0433 18.5062C10.3131 16.8591 11.0072 15.3063 12.0601 13.9942C13.1131 12.682 14.4902 11.6538 16.0617 11.0062C18.3533 9.95842 20.8538 9.42052 23.3833 9.43125C24.5717 9.43125 25.7408 9.54375 26.9675 9.6375C30.8091 10.1224 34.7096 9.8998 38.4675 8.98125C38.3333 14.1562 37.375 26.25 28.0025 30.15Z" fill="white"/>
</svg>
