<svg width="45" height="45" viewBox="0 0 45 45" fill="none" xmlns="http://www.w3.org/2000/svg">
<path d="M22.5 3.75C17.5468 3.81317 12.8143 5.80889 9.3116 9.3116C5.80889 12.8143 3.81317 17.5468 3.75 22.5C3.77315 25.3855 4.46198 28.2267 5.76283 30.8024C7.06369 33.3781 8.94148 35.6188 11.25 37.35V37.5H11.4375C14.6122 39.9328 18.5003 41.2512 22.5 41.2512C26.4997 41.2512 30.3878 39.9328 33.5625 37.5H33.75V37.35C36.0585 35.6188 37.9363 33.3781 39.2372 30.8024C40.538 28.2267 41.2268 25.3855 41.25 22.5C41.1868 17.5468 39.1911 12.8143 35.6884 9.3116C32.1857 5.80889 27.4532 3.81317 22.5 3.75ZM15.1312 35.4938C15.405 34.2402 16.099 33.1179 17.0983 32.3131C18.0975 31.5082 19.3419 31.0692 20.625 31.0687H24.375C25.6581 31.0692 26.9025 31.5082 27.9017 32.3131C28.901 33.1179 29.595 34.2402 29.8688 35.4938C27.6354 36.8078 25.0913 37.5007 22.5 37.5007C19.9087 37.5007 17.3646 36.8078 15.1312 35.4938ZM33.0188 33.075C32.3056 31.3705 31.1046 29.9148 29.5667 28.8907C28.0289 27.8665 26.2227 27.3197 24.375 27.3187H20.625C18.7773 27.3197 16.9711 27.8665 15.4333 28.8907C13.8954 29.9148 12.6944 31.3705 11.9812 33.075C10.5762 31.6931 9.45731 30.0479 8.6884 28.2334C7.91949 26.4189 7.51566 24.4706 7.5 22.5C7.54863 18.5369 9.1446 14.7497 11.9472 11.9472C14.7497 9.1446 18.5369 7.54863 22.5 7.5C26.4631 7.54863 30.2503 9.1446 33.0528 11.9472C35.8554 14.7497 37.4514 18.5369 37.5 22.5C37.4843 24.4706 37.0805 26.4189 36.3116 28.2334C35.5427 30.0479 34.4238 31.6931 33.0188 33.075Z" fill="white"/>
<path d="M22.5 11.2502C21.5088 11.2271 20.5232 11.4053 19.6028 11.774C18.6824 12.1428 17.8464 12.6943 17.1453 13.3954C16.4442 14.0965 15.8926 14.9326 15.5239 15.8529C15.1552 16.7733 14.977 17.7589 15 18.7502C14.977 19.7414 15.1552 20.727 15.5239 21.6474C15.8926 22.5678 16.4442 23.4038 17.1453 24.1049C17.8464 24.806 18.6824 25.3576 19.6028 25.7263C20.5232 26.095 21.5088 26.2732 22.5 26.2502C23.4913 26.2732 24.4769 26.095 25.3973 25.7263C26.3176 25.3576 27.1537 24.806 27.8548 24.1049C28.5559 23.4038 29.1075 22.5678 29.4762 21.6474C29.8449 20.727 30.0231 19.7414 30 18.7502C30.0231 17.7589 29.8449 16.7733 29.4762 15.8529C29.1075 14.9326 28.5559 14.0965 27.8548 13.3954C27.1537 12.6943 26.3176 12.1428 25.3973 11.774C24.4769 11.4053 23.4913 11.2271 22.5 11.2502ZM22.5 22.5002C22.0012 22.5243 21.5028 22.4438 21.0369 22.2639C20.571 22.0839 20.1479 21.8086 19.7948 21.4554C19.4416 21.1023 19.1663 20.6792 18.9863 20.2133C18.8064 19.7474 18.7259 19.249 18.75 18.7502C18.7259 18.2513 18.8064 17.7529 18.9863 17.2871C19.1663 16.8212 19.4416 16.3981 19.7948 16.0449C20.1479 15.6918 20.571 15.4164 21.0369 15.2365C21.5028 15.0565 22.0012 14.976 22.5 15.0002C22.9989 14.976 23.4973 15.0565 23.9632 15.2365C24.429 15.4164 24.8521 15.6918 25.2053 16.0449C25.5584 16.3981 25.8338 16.8212 26.0137 17.2871C26.1937 17.7529 26.2742 18.2513 26.25 18.7502C26.2742 19.249 26.1937 19.7474 26.0137 20.2133C25.8338 20.6792 25.5584 21.1023 25.2053 21.4554C24.8521 21.8086 24.429 22.0839 23.9632 22.2639C23.4973 22.4438 22.9989 22.5243 22.5 22.5002Z" fill="white"/>
</svg>
